/* XPM */
static char *fcd760c761eb48bdd804704fd7d5c52b[] = {
/* columns rows colors chars-per-pixel */
"32 32 86 1 ",
"  c None",
". c #9E0501",
"X c #9C0901",
"o c #A50502",
"O c #AD0703",
"+ c #A50C02",
"@ c #AC0B03",
"# c #AD0B08",
"$ c #B40501",
"% c #BA0400",
"& c #B50C02",
"* c #BD0B01",
"= c #A71402",
"- c #AC1403",
"; c #A41C02",
": c #AE1B02",
"> c #B51503",
", c #BE1403",
"< c #B41A02",
"1 c #BC1B01",
"2 c #B51409",
"3 c #AB2402",
"4 c #AE2B03",
"5 c #B62302",
"6 c #BC2402",
"7 c #B32B02",
"8 c #BD2B02",
"9 c #B43301",
"0 c #BB3201",
"q c #B33D04",
"w c #BD3C02",
"e c #C40400",
"r c #CE0300",
"t c #C30C01",
"y c #CC0D00",
"u c #C41303",
"i c #CC1503",
"p c #C41B02",
"a c #CA1C04",
"s c #CB1708",
"d c #C71908",
"f c #CD1C08",
"g c #D41701",
"h c #DE1400",
"j c #D01E05",
"k c #DA1E00",
"l c #C42303",
"z c #CD2305",
"x c #C32E02",
"c c #CC2B04",
"v c #D32405",
"b c #D82300",
"n c #D62905",
"m c #DA2C06",
"M c #D42408",
"N c #DB2F08",
"B c #C33402",
"V c #CC3403",
"C c #C23E03",
"Z c #CD3B03",
"A c #C33508",
"S c #D43306",
"D c #DB3206",
"F c #D33C04",
"G c #E03606",
"H c #B74A04",
"J c #BA4C04",
"K c #BD4D0A",
"L c #BD510B",
"P c #C24301",
"I c #CA4603",
"U c #CC4B02",
"Y c #D64504",
"T c #D44C05",
"R c #C35502",
"E c #CB5202",
"W c #CD5B02",
"Q c #D25302",
"! c #DA5102",
"~ c #E24306",
"^ c #E04B04",
"/ c #E75505",
"( c #CD6B04",
") c #DF6901",
"_ c #E46D06",
"` c #E1850A",
/* pixels */
"            dlzdlVZV            ",
"         dvalallcYVA6xB         ",
"       f#,nSc      Yx6xxA       ",
"      sz22            ZBBC      ",
"     usn                Iw0     ",
"    jsd                  Q07    ",
"   fjz                    U04   ",
"   MM                      P7   ",
"  Mn                       )09  ",
" nn~                        P99 ",
" mN  +=@        :            wq ",
" NF0>i*tu*+  ++.X+8    lu1zz P9 ",
"mmS05h* pki  1*-6-$>  ptuBzbBU99",
"Mm^ 6r,  ai:<%18 5$%8 t*   uB 94",
"Mm   ri  iu-+o7   @yc 1$Xw x  43",
"mN   eygtt> %o3   <y< Ioo+:7  43",
"DD   yg     $$;I  5*>  8@*gj  7;",
"GG   ua     $$3U  5%6 P  UZgp 3;",
"mN   ta     -$;Q  6%Q(-5   ap ;;",
"Mm/ 1an      8X9Ux*x R&t<UxvTC;;",
" m~ !P        K356I   EB1c0  7; ",
" mD  W                       73 ",
" Mm~                        R44 ",
"  mD                        Jq  ",
"   NN                      RH   ",
"   Dm~                    (JJ   ",
"    mDN                  QLK    ",
"     mMs                UJK     ",
"      Madd            &5PP      ",
"       jffzc_      `A$#>w       ",
"         DDSYYYYTTUI2#&         ",
"            TFFSIFIZ            "
};
