/* XPM */
static char *_0ae1103e70d410acfe0bad61bc45f50[] = {
/* columns rows colors chars-per-pixel */
"16 16 116 2 ",
"   c None",
".  c #A50A03",
"X  c #AC0901",
"o  c #B30601",
"O  c #B60C01",
"+  c #B50C04",
"@  c #B80F02",
"#  c #AB1201",
"$  c #A61E03",
"%  c #A71E03",
"&  c #AF1902",
"*  c #B61602",
"=  c #B51505",
"-  c #B41704",
";  c #B91301",
":  c #BA1302",
">  c #BF1001",
",  c #B71801",
"<  c #B51B03",
"1  c #B41E02",
"2  c #B91D01",
"3  c #B91E01",
"4  c #BB1D02",
"5  c #BF1E01",
"6  c #BB1808",
"7  c #AB2502",
"8  c #B12601",
"9  c #B32B01",
"0  c #B02C02",
"q  c #B82F01",
"w  c #B33301",
"e  c #BB3302",
"r  c #BD3101",
"t  c #BA3701",
"y  c #B43801",
"u  c #BF3C03",
"i  c #C11401",
"p  c #C61601",
"a  c #C81501",
"s  c #CD1502",
"d  c #C21901",
"f  c #C51802",
"g  c #C71902",
"h  c #C71E05",
"j  c #CD1F01",
"k  c #CD1C02",
"l  c #CB1807",
"z  c #C81B07",
"x  c #C91F06",
"c  c #CC1C07",
"v  c #CF1D07",
"b  c #D01F07",
"n  c #C12001",
"m  c #C72300",
"M  c #C02703",
"N  c #C42702",
"B  c #C72304",
"V  c #CD2100",
"C  c #CC2301",
"Z  c #CD2207",
"A  c #CF2307",
"S  c #C02E02",
"D  c #C82D02",
"F  c #D02D01",
"G  c #D02C02",
"H  c #D32807",
"J  c #D92C06",
"K  c #DA2C06",
"L  c #DA2D07",
"P  c #D82F06",
"I  c #DB2E06",
"U  c #C43103",
"Y  c #C73203",
"T  c #C53402",
"R  c #C23107",
"E  c #C93102",
"W  c #CE3201",
"Q  c #CB3501",
"!  c #CA3701",
"~  c #CC3204",
"^  c #CC3604",
"/  c #C13802",
"(  c #C83803",
")  c #C83B02",
"_  c #CC3903",
"`  c #CC3D02",
"'  c #D33405",
"]  c #D33704",
"[  c #D53707",
"{  c #DB3207",
"}  c #DD3107",
"|  c #DE3407",
" . c #D73E01",
".. c #D63A07",
"X. c #B94303",
"o. c #B74904",
"O. c #BD4F08",
"+. c #C44001",
"@. c #C34504",
"#. c #C94001",
"$. c #CC4605",
"%. c #C74902",
"&. c #CD4F02",
"*. c #D54404",
"=. c #D74605",
"-. c #DF4206",
";. c #D34A04",
":. c #CF5201",
">. c #CC5102",
",. c #CD5603",
"<. c #D25003",
"1. c #D55702",
"2. c #E04006",
"3. c #E25204",
"4. c #CD6402",
"5. c #C96404",
/* pixels */
"          x h B ~ ^ M           ",
"      z 6 '         Y T /       ",
"    l Z                 &.e     ",
"  b A                     %.9   ",
"  P                         t   ",
"J ] 5 @ +     . &       D  .+.y ",
"K _ a g j d * , 1 O E i N F ) w ",
"L   p s f : X r   > ! 2 # S   0 ",
"|   C k     o q   ; #.  4 V Q 7 ",
"} 3.m G     < 8 ` n >.3 ( W U $ ",
"L -.1.        4.:.      <.  @.% ",
"  {                         X.  ",
"  L 2.                    5.o.  ",
"    I H                 ,.O.    ",
"      v c ..        R - u       ",
"          [ =.*.;.$.=           "
};
