/* XPM */
static char *_ebccd4ac63a49408942898b04c1c72b[] = {
/* columns rows colors chars-per-pixel */
"64 64 162 2 ",
"   c None",
".  c #8C0100",
"X  c #8F0800",
"o  c #940401",
"O  c #9C0401",
"+  c #950B01",
"@  c #9C0B01",
"#  c #980408",
"$  c #980A0D",
"%  c #9D1301",
"&  c #9E1B01",
"*  c #A30401",
"=  c #AB0401",
"-  c #A40C02",
";  c #AC0B02",
":  c #A70A09",
">  c #AA0A0A",
",  c #B40400",
"<  c #BC0300",
"1  c #B30B02",
"2  c #BC0B01",
"3  c #B20C08",
"4  c #A41402",
"5  c #AC1502",
"6  c #A41C02",
"7  c #AB1C02",
"8  c #B21402",
"9  c #BC1301",
"0  c #B21C02",
"q  c #BB1C03",
"w  c #BB1008",
"e  c #A52102",
"r  c #AC2402",
"t  c #A52901",
"y  c #AD2A02",
"u  c #B32302",
"i  c #BC2303",
"p  c #B42C01",
"a  c #BB2C02",
"s  c #AE3501",
"d  c #B43301",
"f  c #BC3402",
"g  c #B43A01",
"h  c #BD3C02",
"j  c #B53809",
"k  c #C40300",
"l  c #CC0300",
"z  c #C40C02",
"x  c #CC0C00",
"c  c #C10D08",
"v  c #D30100",
"b  c #DF0400",
"n  c #D30E01",
"m  c #DB0A00",
"M  c #C51403",
"N  c #CA1404",
"B  c #C31B04",
"V  c #CC1C06",
"C  c #C61308",
"Z  c #CA1608",
"A  c #C61B08",
"S  c #CD1A09",
"D  c #D51400",
"F  c #DB1300",
"G  c #D31C04",
"H  c #DA1D00",
"J  c #D21F08",
"K  c #E40300",
"L  c #E90100",
"P  c #E00800",
"I  c #F10200",
"U  c #E21500",
"Y  c #EA1400",
"T  c #E41D00",
"R  c #EB1A00",
"E  c #F81900",
"W  c #C32303",
"Q  c #CC2405",
"!  c #C12D02",
"~  c #CC2B04",
"^  c #CE2108",
"/  c #CE2D09",
"(  c #D42406",
")  c #D92605",
"_  c #D52A06",
"`  c #DA2C06",
"'  c #D42308",
"]  c #D82608",
"[  c #D52908",
"{  c #DA2D08",
"}  c #C33302",
"|  c #CC3404",
" . c #C13B02",
".. c #CD3C03",
"X. c #D53306",
"o. c #DC3206",
"O. c #D33B05",
"+. c #DD3B04",
"@. c #D33408",
"#. c #DE3208",
"$. c #D73E09",
"%. c #DC3C08",
"&. c #E12300",
"*. c #EA2500",
"=. c #EB2800",
"-. c #F42F00",
";. c #E03405",
":. c #ED3200",
">. c #E13D06",
",. c #E03709",
"<. c #F23700",
"1. c #F93000",
"2. c #FB3C00",
"3. c #B54505",
"4. c #BE4302",
"5. c #B64A05",
"6. c #BA4A03",
"7. c #B64F09",
"8. c #BD4D08",
"9. c #BD5106",
"0. c #BB520B",
"q. c #BC5312",
"w. c #C34302",
"e. c #CC4403",
"r. c #C44A01",
"t. c #CC4C03",
"y. c #C9470B",
"u. c #D54305",
"i. c #D84703",
"p. c #D44A03",
"a. c #D94A04",
"s. c #D74C08",
"d. c #D84A0A",
"f. c #C45202",
"g. c #CC5301",
"h. c #CB5B01",
"j. c #CD5809",
"k. c #D55403",
"l. c #D95204",
"z. c #D15A01",
"x. c #DC5A03",
"c. c #DB500C",
"v. c #E34505",
"b. c #ED4100",
"n. c #E24C06",
"m. c #E34308",
"M. c #E45004",
"N. c #E95605",
"B. c #EA5906",
"V. c #E85508",
"C. c #CA6604",
"Z. c #D16601",
"A. c #D56A05",
"S. c #D2640D",
"D. c #CE7104",
"F. c #DA7304",
"G. c #DE7902",
"H. c #EE6505",
"J. c #E37207",
"K. c #F37504",
"L. c #EA8506",
"P. c #E49106",
/* pixels */
"                                                    Q ~ ~ ~ Q B B ~ X.e...|                                                     ",
"                                            3 1 w A ^ Q Q ^ W B B ~ | e.| | | | W                                               ",
"                                        ( V B M B Q B Q W W W B W ~ | ..| | | } i i i ~                                         ",
"                                    w V [ _ Q Q Q B M B A W Q W W @...u...} ~ ~ i i i ! } }                                     ",
"                                > : 3 V _ [ [ [ _ ~ B                     x.a.~ W i i i ! ! ! a                                 ",
"                            ^ ^ 3 : > Z _ X.O.                                    | a i i ! ! ! }  .                            ",
"                          Z V [ w : : B a.                                            ..} ! ! f } h  .                          ",
"                        S V V [ A : $                                                     x...} } h  . .                        ",
"                    Z 2 Z S V { @.                                                            k. . .w.f f f                     ",
"                  ( N c Z S ^                                                                     w.h f f f a                   ",
"                N ( S c C ^                                                                         h.} a d a p                 ",
"                S ( J z M                                                                             t.f f p p                 ",
"              S V ' V S                                                                                 g.f f p r               ",
"            V S J ' ^                                                                                     t.f d u y             ",
"          V V ' V '                                                                                         w.d u y p           ",
"          J ' ( ( @.                                                                                          f p p p           ",
"        Q ' ( [ X.        ;                                                                                   z.d p d d         ",
"        ( ( ` o.                                                                                                 .a d d         ",
"      [ [ ( o.M.                                                                                                k.d d d g       ",
"      ` ( ` >.                                                    }                                               f p d d       ",
"    ` ) ( o.B.      4 4                                         ; a                                               t.d g d g     ",
"    _ _ ` >.      f o @ + + % O # # #                         ; * p                                 a               4.d g g     ",
"    _ ` o.a.t.7 ; , , ; ; , 2 < 1 , * #           > # - ; - O o O @ 7 7 a                     a ; * 4 4.g...! )     g.g d g     ",
"  o.` ` o... .p 0 2 *.1.Y k n n H U &.2 * *       - ; - 4 * O O * o O * - f                 0 M ) F x k M M 9 F ~     g d d g   ",
"  ` { ` o.f p f a 4 H E l - u   8 , D -.F ; 0     a i 5 N < * 0 q 7 6 = < = :             9 x x 9 ; W u 2 P -.) 7     h d d s   ",
"  ( { { +.e.p f   7 n Y = 7       0 1 <.Y 2 i       p z U ; &         4 , k , 7         i x k -           W ;.Q 7     w.y d s   ",
"  ) ` ` v.  p p   7 k K = !         ; ) U = 7     p - l 2 7 u       a 5 @ , k 1 7       8 k =               M N 7     t.p d y   ",
"( ) ) ` n.        7 k L < }         4 ) =.* 4 0 7 - , k 4 f a         7 @ = < l 8     g.1 U 2 5             q z p       d p y e ",
"( ) ] `           u < I k           - T *.* 5   - O = * r p.          i 5 * l m 9       5 l l @ @ 0           5 a       d y y 6 ",
"( ] ` ]           r , K k         7 z T M *     @ = = + 6 e.              * z R 9       d = N = . O 7 h.      ! a       d r y 6 ",
") ] { [           7 * v k |     G k F 2 O       = l = o & f               - z U * d t.    5 , = O O o & 3.d p a         d y y 6 ",
"] ` ;.[           p ; L k G P m l 2 1 -           k < o 6 r               u < n * 6        .- O = = * * # @ 4           d r r 6 ",
"` { #.`             1 L z X.    0 u             * < < 4 e r r.            p 2 m , r         a 7 * * , l k n M 0         d r 6 e ",
"` { #.o.            8 m x                       * k < ; 6 6 h p.          6 ; < * f               7 4 2 U 2.1.9 u       p r 6 6 ",
"{ ;.;.;.            q x n                       @ l v * 4 t 4.t.          4 = k =                   } w.} Q =.U ; }     p 6 6 e ",
";.;.{ >.            9 N z                       O , l * % y z.            e , v ;       e r               r 2 Y x 7     y 6 6 6 ",
";.` ] ,.K.          8 F 2                         @ < , % t w.            0 l 2 u       & 4 }             g.4 D 2 7     r % 6 6 ",
"  ] ) ;.H.        f 1 v <                         j 2 < @ t w.          w.2 l 5     C.6.4 2 7 r             B b.9 a   y.6 4 6   ",
"  ) ) #.B.      ~ 4 1 :.F W                         p * O + w.          q k =  .      g 4 v z 4           w.) =.i     h 6 % 6   ",
"  { ( ` v.      M M ; ~ ) +.                          r @ . 6 r.4.h ! 8 , ; p         s - z n 2 ; 5 f w.u 1 D B       j 4 4 6   ",
"  ,.` ) ,.      } k.h d k.N.                            6.+ o @ ; ; 2 , 4 r.            r a a 2 1 , z x = 4 f         r 6 6 7   ",
"    { ' o.V.        z.3.                                    g.d a } e.r.Z.                          g.h.h.          ..e 6 6     ",
"    { ' o.m.        f.d                                                                                             p r r 6     ",
"    { ' ` o.B.        6.                                                                                          j.7 y y 6     ",
"      ' [ ` m.        F.                                                                                          h 6 j y       ",
"      ^ ' ` o.n.                                                                                                G.d y g y       ",
"        ' ` ,.o.                                                                                                f.g j g         ",
"        [ o.#.o.o.                                                                                            A.6.5.7.j         ",
"          ` o.#.( v.                                                                                          6.6.5.3.          ",
"          ` ` #.' X.                                                                                        f.6.6.7.3.          ",
"            { o.( ` m.                                                                                    C.6.6.5.9.            ",
"              ,.` { ;.>.                                                                                D.9.6.6.5.              ",
"                ` { ;.{ o.                                                                            Z.9.q.0.6.                ",
"                ` ` { o.[ [                                                                         t.w.8.q.9.9.                ",
"                  ` ` o.( ' V                                                                     w. .4.8.q.0.                  ",
"                    ) { [ J S Z c                                                             A.r.}  .4.6.q.                    ",
"                        [ ( J C c S A                                                       3 h w.h  .4.                        ",
"                          ( J S z Z Z c @.                                              3 3 3 a w. .w.                          ",
"                            ' S Z J C c Z @./                                     i , > ; ; > u w.4.                            ",
"                                V ( ^ V V ( V Q a.J.L.                    P.F.S...3 = , 3 ; , u                                 ",
"                                    o.o.X.` ~ ( $.d.i.u.a.a.l.l.x.l.k.k.s.t.y.y.q 3 > 3 1 >                                     ",
"                                        %.$.$.O.u.i.u.O.O.O.| O.y...e.u.t.e.e.e.q 3 3 =                                         ",
"                                            c.d.d.i.u.+.O.O.~ ..u...| e.e.e.y.| q                                               ",
"                                                    i.@.u.O.| O.u...| u.t.e.                                                    "
};
